<svg width="24" height="25" viewBox="0 0 24 25" fill="none" xmlns="http://www.w3.org/2000/svg">
<path fill-rule="evenodd" clip-rule="evenodd" d="M10.2377 4.03769C11.2223 3.05312 12.5576 2.5 13.95 2.5H16.65C17.0642 2.5 17.4 2.83579 17.4 3.25V6.85C17.4 7.26421 17.0642 7.6 16.65 7.6H13.95C13.9102 7.6 13.8721 7.6158 13.8439 7.64393C13.8158 7.67206 13.8 7.71022 13.8 7.75V9.7H16.65C16.881 9.7 17.099 9.8064 17.2412 9.98844C17.3833 10.1705 17.4336 10.4078 17.3776 10.6319L16.4776 14.2319C16.3941 14.5658 16.0942 14.8 15.75 14.8H13.8V21.25C13.8 21.6642 13.4642 22 13.05 22H9.45C9.03579 22 8.7 21.6642 8.7 21.25V14.8H6.75C6.33579 14.8 6 14.4642 6 14.05V10.45C6 10.0358 6.33579 9.7 6.75 9.7H8.7V7.75C8.7 6.35761 9.25312 5.02226 10.2377 4.03769ZM13.95 4C12.9554 4 12.0016 4.39509 11.2983 5.09835C10.5951 5.80161 10.2 6.75544 10.2 7.75V10.45C10.2 10.8642 9.86421 11.2 9.45 11.2H7.5V13.3H9.45C9.86421 13.3 10.2 13.6358 10.2 14.05V20.5H12.3V14.05C12.3 13.6358 12.6358 13.3 13.05 13.3H15.1644L15.6894 11.2H13.05C12.6358 11.2 12.3 10.8642 12.3 10.45V7.75C12.3 7.31239 12.4738 6.89271 12.7833 6.58327C13.0927 6.27384 13.5124 6.1 13.95 6.1H15.9V4H13.95Z" fill="#121212"/>
</svg>
