<svg width="24" height="25" viewBox="0 0 24 25" fill="none" xmlns="http://www.w3.org/2000/svg">
<path d="M16.4421 7.95757C16.4421 7.40528 16.8898 6.95757 17.4421 6.95757C17.9944 6.95757 18.4421 7.40528 18.4421 7.95757C18.4421 8.50985 17.9944 8.95757 17.4421 8.95757C16.8898 8.95757 16.4421 8.50985 16.4421 7.95757Z" fill="#121212"/>
<path fill-rule="evenodd" clip-rule="evenodd" d="M12.4421 8.20757C9.81873 8.20757 7.69208 10.3342 7.69208 12.9576C7.69208 15.5809 9.81873 17.7076 12.4421 17.7076C15.0654 17.7076 17.1921 15.5809 17.1921 12.9576C17.1921 10.3342 15.0654 8.20757 12.4421 8.20757ZM9.19208 12.9576C9.19208 11.1626 10.6472 9.70757 12.4421 9.70757C14.237 9.70757 15.6921 11.1626 15.6921 12.9576C15.6921 14.7525 14.237 16.2076 12.4421 16.2076C10.6472 16.2076 9.19208 14.7525 9.19208 12.9576Z" fill="#121212"/>
<path fill-rule="evenodd" clip-rule="evenodd" d="M17.7003 3.79058C14.2338 3.40314 10.6504 3.40314 7.18385 3.79058C5.17179 4.01546 3.54746 5.60047 3.3109 7.623C2.89637 11.1673 2.89637 14.7478 3.3109 18.2921C3.54746 20.3147 5.17179 21.8997 7.18385 22.1245C10.6504 22.512 14.2338 22.512 17.7003 22.1245C19.7124 21.8997 21.3367 20.3147 21.5733 18.2921C21.9878 14.7478 21.9878 11.1673 21.5733 7.623C21.3367 5.60047 19.7124 4.01546 17.7003 3.79058ZM7.35046 5.2813C10.7063 4.90623 14.1779 4.90623 17.5337 5.2813C18.8638 5.42996 19.9293 6.47957 20.0834 7.79725C20.4844 11.2258 20.4844 14.6894 20.0834 18.1179C19.9293 19.4356 18.8638 20.4852 17.5337 20.6338C14.1779 21.0089 10.7063 21.0089 7.35046 20.6338C6.02035 20.4852 4.95486 19.4356 4.80075 18.1179C4.39975 14.6894 4.39975 11.2258 4.80075 7.79725C4.95486 6.47957 6.02035 5.42996 7.35046 5.2813Z" fill="#121212"/>
</svg>
