<svg width="24" height="25" viewBox="0 0 24 25" fill="none" xmlns="http://www.w3.org/2000/svg">
<path fill-rule="evenodd" clip-rule="evenodd" d="M11.75 2.5C6.36522 2.5 2 6.86522 2 12.25C2 17.6348 6.36522 22 11.75 22C17.1348 22 21.5 17.6348 21.5 12.25C21.5 6.86522 17.1348 2.5 11.75 2.5ZM3.5 12.25C3.5 7.69365 7.19365 4 11.75 4C16.3063 4 20 7.69365 20 12.25C20 16.8063 16.3063 20.5 11.75 20.5C10.8927 20.5 10.066 20.3692 9.28865 20.1266C9.71125 19.463 10.0473 18.748 10.2887 17.9991L10.8053 16.0219C11.0187 16.3265 11.3048 16.5729 11.6377 16.7388C11.9705 16.9047 12.3395 16.9848 12.7112 16.9719C15.2465 16.9719 17.0278 14.6681 17.0278 11.8063C17.0278 9.05719 14.7834 7.00282 11.9037 7.00282C8.31746 7.00282 6.41152 9.41344 6.41152 12.0319C6.41152 13.255 7.05871 14.7691 8.09777 15.2559C8.25214 15.3272 8.35308 15.2559 8.37683 15.1431C8.40057 15.0304 8.54292 14.461 8.60828 14.1995C8.61853 14.1581 8.6186 14.1143 8.60825 14.0729C8.5979 14.0315 8.57756 13.9933 8.54902 13.9616C8.15647 13.4085 7.94867 12.7457 7.95527 12.0675C7.95321 11.5807 8.04996 11.0986 8.23964 10.6503C8.42932 10.202 8.708 9.79679 9.05881 9.4593C9.40962 9.12181 9.82527 8.85902 10.2806 8.68682C10.7359 8.51463 11.2214 8.43662 11.7078 8.45751C12.1633 8.43086 12.6194 8.49946 13.0469 8.65892C13.4745 8.81838 13.8641 9.0652 14.1909 9.38365C14.5177 9.70209 14.7746 10.0852 14.9451 10.5084C15.1156 10.9317 15.196 11.3858 15.1812 11.8419C15.1812 14.0863 14.0412 15.6478 12.5687 15.6478C12.3785 15.6624 12.1875 15.631 12.012 15.5562C11.8365 15.4813 11.6817 15.3653 11.5605 15.2179C11.4393 15.0706 11.3555 14.8962 11.316 14.7095C11.2765 14.5229 11.2826 14.3294 11.3337 14.1456C11.4181 13.7954 11.5295 13.4347 11.638 13.0832C11.8349 12.4455 12.0225 11.8381 12.0225 11.3788C12.043 11.2296 12.0311 11.0777 11.9875 10.9335C11.9439 10.7894 11.8696 10.6564 11.7698 10.5436C11.67 10.4308 11.547 10.3409 11.4092 10.2801C11.2714 10.2193 11.1221 10.189 10.9715 10.1913C10.1403 10.1913 9.46933 11.0581 9.46933 12.21C9.46315 12.6171 9.53992 13.0211 9.69496 13.3975L8.71527 17.5538C8.59525 18.3391 8.59499 19.1382 8.71449 19.9236C8.06392 19.6661 7.45391 19.3282 6.89671 18.9222C5.91962 18.2084 5.10317 17.2848 4.51292 16.2093C4.28071 15.7862 4.08712 15.3462 3.93299 14.8946C3.65223 14.0644 3.5 13.175 3.5 12.25Z" fill="#121212"/>
</svg>
