<svg width="24" height="25" viewBox="0 0 24 25" fill="none" xmlns="http://www.w3.org/2000/svg">
<path fill-rule="evenodd" clip-rule="evenodd" d="M6.38055 14.2696C6.42433 14.2844 6.46851 14.2948 6.51265 14.3012C6.56078 14.4144 6.62298 14.5607 6.69554 14.7318C6.87261 15.1494 7.1112 15.7143 7.35748 16.3035C7.85972 17.5052 8.36634 18.7439 8.47822 19.0985C8.61673 19.5368 8.76314 19.8348 8.92298 20.0383C9.00562 20.1435 9.1012 20.2353 9.21305 20.3049C9.26935 20.3399 9.32882 20.3686 9.3909 20.39C9.39363 20.391 9.39637 20.3919 9.3991 20.3928C9.71911 20.5136 10.0109 20.4633 10.1935 20.4018C10.2913 20.3688 10.3704 20.3291 10.4264 20.2969C10.455 20.2804 10.4791 20.2651 10.4984 20.2521L10.5029 20.2491L13.3292 18.4866L16.5937 20.9894C16.6419 21.0263 16.6944 21.0573 16.75 21.0816C17.1422 21.2527 17.522 21.3124 17.8793 21.2636C18.2359 21.2149 18.5191 21.0651 18.7298 20.8964C18.9363 20.7313 19.0762 20.5463 19.1633 20.4089C19.2078 20.3387 19.2412 20.2766 19.2648 20.2291C19.2766 20.2052 19.2862 20.1846 19.2935 20.1681L19.3029 20.1463L19.3065 20.1377L19.308 20.1341L19.3087 20.1324L19.3093 20.1308C19.3264 20.0879 19.3396 20.0435 19.3486 19.9982L22.3288 4.97274C22.3383 4.92469 22.3431 4.87581 22.3431 4.82682C22.3431 4.38681 22.1773 3.96841 21.7875 3.71452C21.4543 3.49752 21.0832 3.48818 20.8486 3.50598C20.5955 3.52519 20.3618 3.58766 20.205 3.63757C20.1234 3.66355 20.055 3.68861 20.0056 3.70773C19.9808 3.71734 19.9605 3.72559 19.9454 3.73188L19.934 3.73666L3.22027 10.2932L3.21811 10.294C3.20745 10.2979 3.19378 10.303 3.17753 10.3093C3.14516 10.3219 3.1018 10.3396 3.05115 10.3626C2.95236 10.4074 2.81378 10.4773 2.67158 10.5747C2.44439 10.7303 1.9219 11.1564 2.00988 11.8597C2.08007 12.4208 2.46445 12.7654 2.69864 12.9311C2.82723 13.0221 2.9494 13.0871 3.03837 13.1295C3.07964 13.1491 3.16534 13.1839 3.20252 13.1991L3.2119 13.2029L6.38055 14.2696ZM20.5189 5.11786L20.5166 5.11888C20.5083 5.1225 20.4999 5.12596 20.4914 5.12928L3.75742 11.6938C3.74868 11.6972 3.73988 11.7005 3.73102 11.7036L3.7217 11.7071C3.711 11.7113 3.69298 11.7186 3.67035 11.7288C3.65753 11.7346 3.64414 11.741 3.63049 11.7478C3.64924 11.7584 3.66719 11.7675 3.68314 11.7751C3.69845 11.7824 3.71012 11.7874 3.71652 11.79L6.85915 12.848C6.91667 12.8674 6.97029 12.893 7.01951 12.924L17.3963 6.84948L17.406 6.84374C17.4136 6.83927 17.4235 6.83353 17.4354 6.8268C17.459 6.81345 17.4914 6.79568 17.53 6.77603C17.6021 6.73938 17.7173 6.68497 17.8471 6.64485C17.9375 6.61692 18.2039 6.53823 18.492 6.63064C18.6698 6.68767 18.8539 6.81028 18.9737 7.01798C19.0332 7.12117 19.0649 7.22483 19.0802 7.31972C19.121 7.4692 19.1145 7.61681 19.0826 7.74424C19.0139 8.01875 18.821 8.23287 18.6455 8.39665C18.4952 8.53706 16.5498 10.4129 14.6306 12.2647C13.6736 13.1881 12.7263 14.1025 12.0182 14.7859L11.5532 15.2349L17.4251 19.7367C17.5598 19.7849 17.6394 19.7825 17.6762 19.7774C17.7201 19.7714 17.756 19.7545 17.7927 19.7252C17.8337 19.6924 17.8696 19.648 17.8965 19.6057L17.8976 19.604L20.788 5.03102C20.7451 5.04133 20.7018 5.05361 20.66 5.06691C20.6126 5.08198 20.5736 5.09634 20.5477 5.10637C20.5349 5.11134 20.5256 5.11511 20.5206 5.11719L20.5189 5.11786ZM12.0576 17.5118L10.8862 16.6136L10.6023 18.4193L12.0576 17.5118ZM9.81148 14.8314L10.9765 13.7067C11.6845 13.0232 12.6319 12.1088 13.5891 11.1852L14.5616 10.247L8.04154 14.0638L8.07653 14.1463C8.25423 14.5654 8.49388 15.1327 8.74147 15.7251C8.92659 16.168 9.12018 16.6344 9.29651 17.0662L9.57954 15.2658C9.60683 15.0922 9.69163 14.942 9.81148 14.8314Z" fill="#121212"/>
</svg>
