<svg width="24" height="25" viewBox="0 0 24 25" fill="none" xmlns="http://www.w3.org/2000/svg">
<path fill-rule="evenodd" clip-rule="evenodd" d="M14.7715 3.58095C15.2799 3.49387 15.8492 3.46479 16.385 3.55543C17.3418 3.71732 18.2257 4.16205 18.9244 4.8288C19.3811 4.83913 19.8299 4.74916 20.227 4.6209C20.5631 4.51235 20.847 4.38128 21.046 4.27764C21.1449 4.22611 21.2213 4.18215 21.271 4.15239C21.2958 4.13753 21.3138 4.12629 21.3245 4.1195L21.3341 4.11344C21.6309 3.91571 22.0261 3.95419 22.279 4.2057C22.5319 4.45726 22.5726 4.85218 22.3764 5.15009C22.1687 5.46538 21.8803 6.02745 21.5573 6.65721C21.5065 6.75623 21.4548 6.85692 21.4025 6.95859C21.2172 7.31855 21.0272 7.68237 20.8501 7.9945C20.7389 8.19049 20.62 8.38946 20.5001 8.5614V8.83518C20.5077 9.84081 20.3924 10.8412 20.1583 11.8144C20.011 12.4268 19.8167 13.0283 19.5765 13.6137C18.9541 15.1304 18.0357 16.5078 16.8749 17.6656C15.7142 18.8233 14.3344 19.7382 12.8162 20.3567C11.2992 20.9747 9.6745 21.2845 8.03665 21.2681C5.66234 21.2701 3.33798 20.5861 1.34326 19.2982C1.04945 19.1085 0.925755 18.7409 1.04509 18.4121C1.16443 18.0834 1.49512 17.8808 1.84219 17.9238C2.14255 17.9609 2.44496 17.9791 2.74762 17.9781C3.83507 17.975 4.90181 17.7348 5.87567 17.2821C5.56612 17.1412 5.27058 16.9675 4.99443 16.7627C4.18271 16.1608 3.5788 15.3208 3.26673 14.3597C3.18564 14.1099 3.24108 13.8359 3.41289 13.6374C3.41597 13.6338 3.41908 13.6303 3.42221 13.6268C3.23869 13.4631 3.06696 13.285 2.90886 13.0933C2.19754 12.2311 1.80587 11.1497 1.80009 10.032L1.80007 10.0281L1.80008 9.97807C1.80008 9.71221 1.94083 9.46621 2.17003 9.33149C2.22813 9.29734 2.28972 9.27164 2.35307 9.2544C2.01473 8.57931 1.83879 7.83387 1.84007 7.07761C1.83968 6.22084 2.06347 5.37888 2.48923 4.63537C2.61214 4.42074 2.83297 4.2805 3.0795 4.26052C3.32603 4.24055 3.56656 4.3434 3.72242 4.53545C4.68498 5.72146 5.88626 6.69172 7.24825 7.38319C7.94839 7.73864 8.68294 8.01634 9.43874 8.21277C9.86247 8.3229 10.2929 8.40749 10.7277 8.46591C10.7085 7.74266 10.8513 7.01979 11.1511 6.35186C11.5907 5.37203 12.3432 4.56585 13.2904 4.05976C13.6916 3.84543 14.2241 3.67472 14.7715 3.58095ZM3.49335 11.1284C3.623 11.4933 3.81586 11.8357 4.06592 12.1388C4.55724 12.7343 5.23919 13.1419 5.99641 13.2925C6.33369 13.3596 6.58213 13.6475 6.59916 13.9909C6.61618 14.3344 6.39743 14.6455 6.06843 14.7456C5.79594 14.8285 5.51676 14.8863 5.23441 14.9184C5.42099 15.1589 5.64047 15.3743 5.88787 15.5578C6.44906 15.9739 7.126 16.2048 7.82451 16.2182C8.14143 16.2243 8.4203 16.429 8.52112 16.7295C8.62195 17.03 8.52296 17.3615 8.27386 17.5575C7.22469 18.383 6.01149 18.9587 4.72594 19.2526C5.79142 19.5938 6.90887 19.7695 8.03916 19.7681L8.04786 19.7681C9.48792 19.783 10.9165 19.5109 12.2502 18.9676C13.5839 18.4242 14.796 17.6206 15.8156 16.6036C16.8353 15.5865 17.642 14.3765 18.1888 13.0442C18.3998 12.53 18.5705 12.0015 18.6999 11.4636C18.9057 10.6079 19.007 9.7282 19.0001 8.84394L19.0001 8.83807V8.30807C19.0001 8.12622 19.0661 7.95056 19.186 7.81379C19.2553 7.73475 19.3764 7.55219 19.5455 7.25429C19.7061 6.97116 19.8839 6.63126 20.0688 6.27208C20.08 6.25035 20.0912 6.22852 20.1025 6.20658C19.6229 6.31073 19.0793 6.36531 18.5095 6.30373C18.329 6.28423 18.1618 6.19994 18.0387 6.0665C17.5358 5.52116 16.8662 5.15816 16.1348 5.03442C15.8102 4.97951 15.4179 4.99208 15.0248 5.05942C14.5977 5.13258 14.226 5.26059 13.9973 5.38277C13.343 5.73234 12.8233 6.28918 12.5196 6.96597C12.2159 7.64275 12.1454 8.4012 12.3192 9.12236C12.3746 9.35227 12.3183 9.59485 12.1674 9.77688C12.0164 9.95891 11.7884 10.0591 11.5522 10.0471C10.7088 10.0045 9.87429 9.87581 9.06142 9.66454C8.20152 9.44105 7.36579 9.1251 6.56921 8.72069C5.39643 8.12527 4.32838 7.34818 3.40354 6.42049C3.36135 6.6361 3.33993 6.85613 3.34008 7.07758L3.34007 7.0795C3.33903 7.63022 3.47418 8.17265 3.73349 8.6585C3.9928 9.14435 4.36822 9.55854 4.82633 9.86419C5.10436 10.0497 5.22608 10.3968 5.12483 10.7153C5.02358 11.0338 4.72378 11.2469 4.38968 11.2378C4.08708 11.2296 3.78702 11.1928 3.49335 11.1284Z" fill="#121212"/>
</svg>
